<svg id="Layer_1" data-name="Layer 1" xmlns="http://www.w3.org/2000/svg" viewBox="0 0 1670.99 537.69"><defs><style>.cls-1,.cls-3{fill:#e6e6e6;}.cls-1,.cls-2,.cls-4{fill-rule:evenodd;}.cls-2{fill:#fff;}.cls-4,.cls-5{fill:#ccc;}</style></defs><title>Site White</title><path class="cls-1" d="M1204.48,514.69,1159.15,501l-1.29-152.77,41.44-51.5,101,1.72,37.55,51.5-1.29,133.89Zm119.14-151.06-42.73,3.43v46.35l41.44-5.15Zm-67.34,54.93v-51.5h-18.13v51.5Zm-71.22,89.26V440.87l-15.54-3.43-1.29,65.23Zm12.95-115,1.29-22.31L1176,367.06l1.29,24Z"/><polygon class="cls-1" points="182.88 510.77 133.43 122.17 276.3 111.7 309.27 143.11 314.28 307.96 371.92 300.1 373.38 27.92 320.26 27.92 325.75 13.96 371.55 13.96 371.55 2.33 404.51 0 402.68 16.29 789.17 20.94 787.37 173.14 785.42 175.62 783.68 26.76 402.68 29.09 413.67 383.95 455.76 381.32 466.24 200.54 662.41 189.27 662.74 378.7 717.08 372.83 668.28 509.61 182.88 510.77"/><polygon class="cls-2" points="253.27 431.59 237.03 425.09 200.95 131.72 217.28 130.05 253.27 431.59"/><polygon class="cls-2" points="288.73 429.03 272.5 422.53 236.41 129.17 250.77 127.49 288.73 429.03"/><polygon class="cls-2" points="213.14 429.59 196.91 423.09 161.45 131.64 178.87 129.73 213.14 429.59"/><polygon class="cls-1" points="707.28 386.56 694.18 266.04 846.14 266.04 838.28 394.42 901.17 389.18 909.02 116.7 660.12 106.22 906.4 85.26 909.02 61.68 935.23 61.68 937.84 85.26 977.15 82.64 974.52 119.32 932.6 116.7 932.6 305.34 977.15 313.2 982.38 208.4 1087.19 216.26 1084.57 347.26 1152.69 357.74 1144.82 509.7 552.7 507.08 707.28 386.56"/><polygon class="cls-2" points="1030.06 470.34 1021.02 463.65 1036.64 231.35 1046.78 231.68 1030.06 470.34"/><polygon class="cls-2" points="1051.94 471.88 1042.91 465.2 1058.52 232.9 1067.46 233.03 1051.94 471.88"/><polygon class="cls-2" points="1005.93 464.77 996.89 458.09 1012.64 227.35 1023.48 227.59 1005.93 464.77"/><rect class="cls-3" x="1397.86" y="463.69" width="222" height="8"/><rect class="cls-3" x="1107.86" y="483" width="514" height="23.37"/><rect class="cls-3" x="1397.86" y="437.69" width="222" height="8"/><rect class="cls-3" x="1397.86" y="411.69" width="222" height="8"/><rect class="cls-3" x="1397.86" y="385.69" width="222" height="8"/><rect class="cls-3" x="1397.86" y="359.69" width="222" height="8"/><rect class="cls-3" x="1397.86" y="333.69" width="222" height="8"/><rect class="cls-3" x="1397.86" y="307.69" width="222" height="8"/><rect class="cls-3" x="1397.86" y="281.69" width="222" height="8"/><rect class="cls-3" x="1397.86" y="255.69" width="222" height="8"/><rect class="cls-3" x="1397.86" y="229.69" width="222" height="8"/><rect class="cls-3" x="1397.86" y="203.69" width="222" height="8"/><rect class="cls-3" x="1397.86" y="177.69" width="222" height="8"/><rect class="cls-3" x="1397.86" y="151.69" width="222" height="8"/><rect class="cls-3" x="1397.86" y="125.69" width="222" height="8"/><rect class="cls-3" x="1397.86" y="85.69" width="222" height="20"/><rect class="cls-3" x="1398.48" y="100.69" width="18.75" height="387"/><rect class="cls-3" x="1336.61" y="249.69" width="6.5" height="238"/><rect class="cls-3" x="1304.61" y="251.69" width="6.5" height="238"/><rect class="cls-3" x="1466.61" y="100.69" width="10.5" height="387"/><rect class="cls-3" x="1598.38" y="100.69" width="21" height="387"/><rect class="cls-3" x="1301.86" y="292.69" width="98" height="6"/><rect class="cls-3" x="1301.86" y="352.69" width="98" height="6"/><path class="cls-4" d="M0,483.52l10.92-.59s8.77-110,15.5-126.83,201.67-14.65,201.67-14.65l42.91,73,23.16,6.87L303.4,483l-32.68,6.94s-10.44,26-29.5,25.61c-25.42-.56-28-27.3-28-27.3L90,493.52s-2,22-22.58,22.44c-34,.72-31.22-26.12-31.22-26.12L12,495.52Zm257.44-70.4L221.3,348l-23.55,1.65,7.73,66.65Z"/><polygon class="cls-4" points="975.86 407.69 973.86 365.69 995.86 361.69 995.86 405.69 975.86 407.69"/><path class="cls-4" d="M735.86,501.69l-2-156,58-60,156-2,64,60-2,178-70,16Zm22-88,64,6v-54l-66-4Zm130,12v-60h-28v60Zm108,98-2-76-24,4v78Zm-14-130,2-28-36,4,2,26Z"/><polygon class="cls-1" points="757.86 345.69 815.86 289.69 805.86 289.69 745.86 349.69 757.86 345.69"/><polygon class="cls-1" points="779.86 345.69 837.86 289.69 827.86 289.69 767.86 349.69 779.86 345.69"/><polygon class="cls-1" points="801.86 345.69 859.86 289.69 849.86 289.69 789.86 349.69 801.86 345.69"/><polygon class="cls-1" points="823.86 345.69 881.86 289.69 871.86 289.69 811.86 349.69 823.86 345.69"/><polygon class="cls-1" points="845.86 345.69 903.86 289.69 893.86 289.69 833.86 349.69 845.86 345.69"/><polygon class="cls-1" points="867.86 345.69 925.86 289.69 915.86 289.69 855.86 349.69 867.86 345.69"/><polygon class="cls-1" points="889.86 345.69 947.86 289.69 937.86 289.69 877.86 349.69 889.86 345.69"/><rect class="cls-5" x="671.86" y="337.69" width="6" height="174"/><rect class="cls-5" x="673.86" y="467.69" width="84" height="4"/><rect class="cls-5" x="671.86" y="367.69" width="78" height="4"/><rect class="cls-5" x="715.86" y="343.69" width="6" height="192"/><rect class="cls-5" x="1065.86" y="331.69" width="6" height="174"/><rect class="cls-5" x="889.86" y="461.69" width="180" height="4"/><rect class="cls-5" x="993.86" y="361.69" width="78" height="4"/><rect class="cls-5" x="1021.86" y="337.69" width="6" height="192"/><path class="cls-4" d="M393.58,499.07c0,9.18,4.11,16.62,9.19,16.62H651c5.08,0,9.19-7.44,9.19-16.62V490.3c0-9.18-4.11-16.62-9.19-16.62H402.77c-5.08,0-9.19,7.44-9.19,16.62Z"/><path class="cls-1" d="M646.9,500.68c0,3.87,1.73,7,3.87,7h0c2.14,0,3.87-3.13,3.87-7v-12c0-3.87-1.73-7-3.87-7h0c-2.14,0-3.87,3.13-3.87,7Z"/><path class="cls-4" d="M443.36,453.84c0,7.65,3.43,13.85,7.66,13.85H657.87c4.23,0,7.66-6.2,7.66-13.85v-7.31c0-7.65-3.43-13.85-7.66-13.85H451c-4.23,0-7.66,6.2-7.66,13.85Z"/><path class="cls-1" d="M654.46,455.18c0,3.22,1.44,5.83,3.23,5.83h0c1.78,0,3.23-2.61,3.23-5.83v-10c0-3.22-1.44-5.83-3.23-5.83h0c-1.78,0-3.23,2.61-3.23,5.83Z"/><path class="cls-4" d="M1667,529.73H1428.71c-10.89,0-19.72-15.58-19.72-34.81V476.54c0-19.23,8.83-34.81,19.72-34.81H1671"/><path class="cls-1" d="M1435.92,499c0,8.1-3.72,14.67-8.31,14.67h0c-4.59,0-8.31-6.57-8.31-14.67V473.82c0-8.1,3.72-14.67,8.31-14.67h0c4.59,0,8.31,6.57,8.31,14.67Z"/><rect class="cls-5" x="1360.37" y="456.93" width="3.69" height="11.36" transform="translate(327.91 1462.55) rotate(-62.79)"/><rect class="cls-5" x="1364.66" y="448.6" width="3.69" height="11.36" transform="translate(337.73 1461.92) rotate(-62.79)"/><rect class="cls-5" x="1368.95" y="440.26" width="3.69" height="11.36" transform="translate(347.28 1461.01) rotate(-62.78)"/><path class="cls-4" d="M1172,403.09l101.41-123.94,19.72-2.82,104,101s19.9,15.86,24.13,28.54c5.4,16.21-20.13,73.46-56.13,61.46-2.68-.89,27.72-55.85,27.72-55.85l-16.48-15.06-91.73-94.78L1205.84,413l2.82,42.25,60.55.17s12,0,12,14,10,32-6,42-200,14-208,10-14-34,0-44,37.23-9.49,37.23-9.49l-9.86-81.69,64.63-6.82Zm-35.21,53.52-4.23-33.8,21.13-7-5.63-23.94-35.56,6.12,7.39,60.08Z"/></svg>